<?xml version="1.0" encoding="utf-8"?>
<!-- Generator: Adobe Illustrator 24.0.0, SVG Export Plug-In . SVG Version: 6.00 Build 0)  -->
<svg version="1.1" id="Layer_1" xmlns="http://www.w3.org/2000/svg" xmlns:xlink="http://www.w3.org/1999/xlink" x="0px" y="0px"
	 viewBox="0 0 438.3 359.4" style="enable-background:new 0 0 438.3 359.4;" xml:space="preserve">
<style type="text/css">
	.st0{fill:#FFFFFF;}
</style>
<g>
	<g>
		<path class="st0" d="M339.5,13.4c1.5,0,3.4,0.6,5.7,1.7c2.2,1.1,4.5,2.5,6.8,4.3c2.3,1.8,4.8,3.9,6.9,6.2c2.1,2.3,5.2,5.5,3.6,7.8
			c-27.1,37.6-42.6,65.9-53.4,101.9c-13.5,44.9-14.1,101.1-3.8,146.9l-21,11.6c0,0-3.6,2-3.9,1.4c-8.7-14-22-27.9-37.4-37.6
			c-11.5-7.2-25.2-12.7-38.7-15.9c-0.2,0-0.9,0.7-1,0.8c-14.1,15-31.3,32.3-41.1,41.1c-1.8,1.6-15.9,15.8-46.4,38.9
			c-1.4,1.1-30.7,20.8-46.2,18c-10-1.8-16.7-6.5-20.1-11.8c-3.3-5.1-5.1-17.5,1-28.6c2.6-4.6,5-9.1,6.9-11.7
			c12.8-18.5,23.8-29.3,41.4-41.5c12.8-8.8,28.9-16.1,43.8-19.8c28.7-7,36.5-4.2,51.1-4.4c12.2-15.3,22.5-29.5,35-47
			c12.5-17.5,25-35.4,37.6-53.7c12.5-18.3,24.9-36.6,37.1-55C315.4,48.6,327.5,30.7,339.5,13.4z M79.4,321.3
			c36.3-24.9,49.9-37.3,62-47.8c10.3-8.9,20.2-17.6,30.2-27.7c-4.1,4.2,3.5-3.9,6.5-6.3c0,0-0.3-0.3,0.1-0.3
			c-13.6-0.6-32.2,3.5-41.8,7.5c-15.1,6.3-48.8,20.7-67.2,57.7C60,322.8,73.1,325.6,79.4,321.3z M279.7,260.5
			c-0.9-9.2-3.7-15.9-2.6-54c0.7-26,5.2-56.5,12.6-79.2c0.2-0.6,0.6-1.7,0.7-2.3c-0.3,0.5-1.1,1-1.4,1.5
			c-12.7,18.2-28.5,45.9-40,60.2c-11.7,14.7-21.4,28.1-32.3,40.3c9.3,2,16.4,5.3,27.1,9.4c8.6,3.3,25.3,13.5,33.6,21.9
			C277.9,258.8,279.7,259.9,279.7,260.5z"/>
	</g>
	<path class="st0" d="M274.2,286.1c0,0,10.3,13.4,16.3,28.8l26-0.2c-8-19.1-9.3-24.5-11.4-33.7L274.2,286.1z"/>
	<path class="st0" d="M175.7,345.4l-1.7-4.3h-8.5l-1.6,4.3h-5.8l9.2-21.9h5.1l9.1,21.9H175.7z M169.8,329.3l-2.8,7.5h5.5
		L169.8,329.3z"/>
	<path class="st0" d="M195.2,345.4l-4.8-8.7h-1.8v8.7h-5.2v-21.9h8.4c1.1,0,2.1,0.1,3.1,0.3c1,0.2,1.9,0.6,2.7,1.1
		c0.8,0.5,1.4,1.2,1.9,2c0.5,0.8,0.7,1.9,0.7,3.2c0,1.5-0.4,2.7-1.2,3.7c-0.8,1-1.9,1.7-3.3,2.2l5.7,9.4H195.2z M194.9,330.2
		c0-0.5-0.1-0.9-0.3-1.3c-0.2-0.3-0.5-0.6-0.8-0.7c-0.3-0.2-0.7-0.3-1.2-0.4c-0.4-0.1-0.8-0.1-1.2-0.1h-2.8v5.1h2.5
		c0.4,0,0.9,0,1.3-0.1c0.5-0.1,0.9-0.2,1.2-0.4c0.4-0.2,0.7-0.5,0.9-0.8C194.8,331.2,194.9,330.7,194.9,330.2z"/>
	<path class="st0" d="M213,328v17.4h-5.3V328h-6.2v-4.5h17.7v4.5H213z"/>
	<path class="st0" d="M244.3,345c-1.4,0.7-3.1,1-4.9,1c-1.7,0-3.3-0.3-4.7-0.8c-1.4-0.6-2.7-1.3-3.7-2.4c-1.1-1-1.9-2.2-2.5-3.7
		c-0.6-1.4-0.9-3-0.9-4.7c0-1.8,0.3-3.3,0.9-4.8c0.6-1.4,1.4-2.6,2.5-3.6c1.1-1,2.3-1.8,3.8-2.3c1.4-0.5,3-0.8,4.7-0.8
		c1.5,0,3.1,0.3,4.6,0.8c1.5,0.5,2.7,1.3,3.6,2.4l-3.6,3.6c-0.5-0.7-1.1-1.2-2-1.5c-0.8-0.3-1.6-0.5-2.5-0.5c-0.9,0-1.8,0.2-2.6,0.5
		c-0.8,0.3-1.4,0.8-2,1.4c-0.6,0.6-1,1.3-1.3,2.1c-0.3,0.8-0.5,1.7-0.5,2.7c0,1,0.2,1.9,0.5,2.7c0.3,0.8,0.7,1.5,1.3,2.1
		c0.5,0.6,1.2,1,2,1.4c0.8,0.3,1.6,0.5,2.5,0.5c1.1,0,2-0.2,2.8-0.6c0.8-0.4,1.4-0.9,1.9-1.6l3.7,3.5
		C246.9,343.5,245.7,344.4,244.3,345z"/>
	<path class="st0" d="M264.6,345.4l-1.7-4.3h-8.5l-1.6,4.3h-5.8l9.2-21.9h5.1l9.1,21.9H264.6z M258.7,329.3l-2.8,7.5h5.5
		L258.7,329.3z"/>
	<path class="st0" d="M277.6,328v4.5h8.5v4.4h-8.5v8.5h-5.2v-21.9h14.4v4.5H277.6z"/>
	<path class="st0" d="M295.4,328v4.5h8.5v4.4h-8.5v8.5h-5.2v-21.9h14.4v4.5H295.4z"/>
	<path class="st0" d="M308,345.4v-21.9l11.8,0.1l1.8,4.4l-8.5,0v4.1l9.9,0.1l1.9,4.1l-11.8,0v4.6l13.8,0l2.1,4.5L308,345.4z"/>
</g>
</svg>
